# xmcd
#
# Track frame offsets:
#	150
#	12760
#	31393
#	45474
#	60413
#	73180
#	88053
#	99362
#	111713
#	126217
#	138448
#	150491
#	162350
#	175470
#	187554
#	199216
#	212802
#	227641
#
# Disc length: 3204 seconds
#
# Revision: 1
# Processed by: cddbd v1.4PL0 Copyright (c) Steve Scherf et al.
# Submitted via: audiograbber 1.81.03
#
DISCID=f40c8212
DTITLE=Various Artist - County Jail Blues - CD 4
DYEAR=2001
DGENRE=Blues
TTITLE0=Jesse Price - Jump It With A Shuffle
TTITLE1=Mississippi John Hurt - Frankie And Albert
TTITLE2=John Lee Hooker - Whistliln' And Moanin' Blues
TTITLE3=Jay McShann's Kansas City Stompers - Hard Workin' Man Blues
TTITLE4=T Bone Walker - Long Skirt Baby Blues
TTITLE5=Lightnin' Hopkins - Mojo Hand
TTITLE6=Gene Ammons Quintet - Blowin' Red's Top
TTITLE7=Sonny Tery - Dirty Misstreater
TTITLE8=Lohn Lee Hooker - Forgive Me
TTITLE9=Amos Milburn - Atomic Baby
TTITLE10=T Bone Walker - Baby Broke My Heart
TTITLE11=King Cole Trio - Loan Me Two Till Tuesday
TTITLE12=Joe Lutcher - No Name Boogie
TTITLE13=Charles Brown - My Silent Love
TTITLE14=Smokey Hogg - Need My Help
TTITLE15=John Lee Hooker - John Lee's House Rent Boogie
TTITLE16=Nat "King" Cole Trio - The Frim Fram Sauce
TTITLE17=Mississippi Fred McDowell - Got To Move
EXTD=
EXTT0=
EXTT1=
EXTT2=
EXTT3=
EXTT4=
EXTT5=
EXTT6=
EXTT7=
EXTT8=
EXTT9=
EXTT10=
EXTT11=
EXTT12=
EXTT13=
EXTT14=
EXTT15=
EXTT16=
EXTT17=
PLAYORDER=
